<svg xmlns="http://www.w3.org/2000/svg" xmlns:xlink="http://www.w3.org/1999/xlink" width="500" zoomAndPan="magnify" viewBox="0 0 375 374.999991" height="500" preserveAspectRatio="xMidYMid meet" version="1.0"><defs><g/><clipPath id="00c58d9ba5"><path d="M 77.367188 59.972656 L 297.777344 59.972656 L 297.777344 210.5 L 77.367188 210.5 Z M 77.367188 59.972656 " clip-rule="nonzero"/></clipPath><clipPath id="fe75e31d4f"><path d="M 145.855469 122.15625 L 229.179688 122.15625 L 229.179688 205.480469 L 145.855469 205.480469 Z M 145.855469 122.15625 " clip-rule="nonzero"/></clipPath></defs><g clip-path="url(#00c58d9ba5)"><path fill="#009688" d="M 297.753906 156.066406 L 297.753906 184.402344 C 297.753906 187.640625 295.140625 190.265625 291.90625 190.28125 C 291.886719 190.28125 291.871094 190.28125 291.855469 190.28125 L 272.695312 191.621094 C 272.277344 191.652344 271.933594 191.941406 271.828125 192.339844 C 270.230469 198.449219 267.992188 204.296875 265.179688 209.804688 C 265.179688 209.808594 265.179688 209.808594 265.175781 209.8125 C 264.902344 210.339844 264.222656 210.492188 263.753906 210.132812 L 246.136719 196.714844 C 245.785156 196.445312 245.660156 195.96875 245.835938 195.566406 C 246.835938 193.273438 247.699219 190.914062 248.425781 188.492188 C 249.351562 185.394531 250.046875 182.195312 250.496094 178.917969 C 250.765625 176.953125 250.941406 174.960938 251.027344 172.945312 C 251.066406 172.046875 251.085938 171.144531 251.085938 170.234375 C 251.085938 168.492188 251.011719 166.765625 250.875 165.054688 C 249.378906 146.445312 239.867188 130.101562 225.800781 119.476562 C 215.164062 111.441406 201.921875 106.679688 187.570312 106.679688 C 152.492188 106.679688 124.058594 135.132812 124.058594 170.234375 C 124.058594 179.242188 125.929688 187.804688 129.304688 195.566406 C 129.480469 195.972656 129.355469 196.445312 129.003906 196.714844 L 127.347656 197.972656 L 111.398438 210.125 C 110.925781 210.484375 110.238281 210.332031 109.960938 209.804688 C 109.929688 209.738281 109.894531 209.675781 109.863281 209.609375 C 109.816406 209.523438 109.773438 209.441406 109.730469 209.351562 C 108.34375 206.589844 107.09375 203.742188 106 200.820312 C 104.96875 198.058594 104.070312 195.230469 103.316406 192.339844 C 103.210938 191.941406 102.863281 191.652344 102.449219 191.621094 L 83.289062 190.28125 C 83.269531 190.28125 83.253906 190.28125 83.234375 190.28125 C 80.003906 190.265625 77.390625 187.640625 77.390625 184.402344 L 77.390625 156.066406 C 77.390625 152.828125 80.003906 150.203125 83.234375 150.191406 C 83.253906 150.191406 83.269531 150.1875 83.289062 150.1875 L 102.449219 148.847656 C 102.863281 148.820312 103.210938 148.53125 103.316406 148.128906 C 105.34375 140.363281 108.414062 133.015625 112.375 126.253906 C 112.585938 125.894531 112.542969 125.445312 112.273438 125.132812 L 99.664062 110.621094 C 99.652344 110.609375 99.644531 110.59375 99.628906 110.582031 C 97.355469 108.285156 97.363281 104.582031 99.648438 102.292969 L 111.851562 90.078125 L 119.671875 82.253906 C 121.957031 79.964844 125.667969 79.957031 127.957031 82.234375 C 127.972656 82.246094 127.984375 82.257812 127.996094 82.269531 L 142.5 94.886719 C 142.808594 95.160156 143.261719 95.195312 143.621094 94.988281 C 150.378906 91.027344 157.714844 87.953125 165.476562 85.921875 C 165.878906 85.816406 166.171875 85.46875 166.199219 85.054688 L 167.535156 65.878906 C 167.539062 65.863281 167.539062 65.847656 167.539062 65.832031 C 167.554688 62.59375 170.175781 59.976562 173.410156 59.976562 L 201.730469 59.976562 C 204.964844 59.976562 207.589844 62.59375 207.601562 65.832031 C 207.601562 65.847656 207.601562 65.863281 207.605469 65.878906 L 208.945312 85.054688 C 208.972656 85.46875 209.261719 85.816406 209.664062 85.921875 C 217.425781 87.953125 224.761719 91.027344 231.523438 94.988281 C 231.878906 95.195312 232.332031 95.160156 232.644531 94.886719 L 235.089844 92.757812 L 247.144531 82.269531 C 247.160156 82.257812 247.171875 82.246094 247.183594 82.234375 C 249.476562 79.957031 253.183594 79.964844 255.46875 82.253906 L 263.289062 90.078125 L 275.496094 102.292969 C 277.78125 104.582031 277.789062 108.285156 275.511719 110.582031 C 275.5 110.59375 275.488281 110.609375 275.476562 110.621094 L 262.871094 125.132812 C 262.597656 125.445312 262.558594 125.894531 262.765625 126.253906 C 266.1875 132.097656 268.945312 138.371094 270.941406 144.980469 C 271.257812 146.023438 271.554688 147.070312 271.828125 148.128906 C 271.933594 148.53125 272.28125 148.820312 272.695312 148.847656 L 275.53125 149.046875 L 277.902344 149.214844 L 285.003906 149.710938 L 291.855469 150.1875 C 291.871094 150.1875 291.886719 150.191406 291.90625 150.191406 C 295.140625 150.203125 297.753906 152.828125 297.753906 156.066406 " fill-opacity="1" fill-rule="nonzero"/></g><g clip-path="url(#fe75e31d4f)"><path fill="#717273" d="M 219.300781 140.90625 C 219.289062 140.921875 219.273438 140.9375 219.261719 140.949219 L 216.246094 144.484375 C 215.910156 144.347656 215.554688 144.285156 215.199219 144.300781 L 212.007812 131.828125 L 219.285156 138.96875 C 219.820312 139.5 219.832031 140.371094 219.300781 140.90625 Z M 216.960938 152.777344 L 208.953125 144.910156 C 209.101562 144.128906 208.867188 143.292969 208.257812 142.695312 C 207.648438 142.097656 206.808594 141.878906 206.03125 142.039062 L 198.039062 134.191406 C 199.851562 134.835938 201.601562 135.644531 203.273438 136.613281 L 212.929688 146.097656 C 212.699219 146.9375 212.914062 147.871094 213.578125 148.519531 C 214.074219 149.007812 214.722656 149.242188 215.367188 149.226562 C 215.972656 150.375 216.503906 151.5625 216.960938 152.777344 Z M 226.082031 156.871094 C 226.835938 156.863281 227.457031 157.472656 227.464844 158.226562 L 227.492188 161.320312 L 220.894531 156.554688 L 226.023438 156.867188 C 226.042969 156.871094 226.0625 156.871094 226.082031 156.871094 Z M 209.703125 162.792969 L 211.542969 161.457031 C 212.472656 161.921875 213.632812 161.757812 214.398438 160.980469 C 214.960938 160.40625 215.1875 159.632812 215.078125 158.894531 L 217.214844 157.347656 C 217.917969 157.832031 218.8125 157.914062 219.578125 157.589844 L 226.574219 162.640625 Z M 206.273438 155.707031 C 206.15625 155.441406 206.035156 155.175781 205.90625 154.914062 L 210.257812 158.625 C 210.113281 159.179688 210.164062 159.773438 210.410156 160.296875 L 207.878906 162.128906 C 207.699219 159.910156 207.160156 157.753906 206.273438 155.707031 Z M 187.6875 182.621094 C 177.304688 182.714844 168.785156 174.347656 168.691406 163.964844 C 168.628906 156.886719 172.589844 150.332031 178.84375 147.082031 C 178.984375 147.054688 179.117188 146.988281 179.226562 146.890625 C 179.238281 146.886719 179.25 146.878906 179.257812 146.875 C 179.328125 146.863281 179.398438 146.839844 179.464844 146.808594 C 181.933594 145.636719 184.589844 145.03125 187.347656 145.003906 C 191.265625 144.96875 194.917969 146.140625 197.953125 148.171875 L 200.101562 149.84375 C 203.886719 153.25 206.289062 158.164062 206.339844 163.644531 C 206.425781 174.015625 198.058594 182.527344 187.6875 182.621094 Z M 180.035156 134.226562 L 184.085938 137.378906 L 179.613281 143.625 Z M 174.808594 135.0625 C 175.992188 134.539062 177.210938 134.085938 178.449219 133.714844 L 178.078125 141.96875 Z M 186.792969 139.488281 C 186.605469 140.292969 186.832031 141.179688 187.46875 141.804688 C 188.246094 142.570312 189.40625 142.710938 190.328125 142.234375 L 192.65625 144.046875 C 190.929688 143.601562 189.148438 143.382812 187.332031 143.398438 C 185.148438 143.417969 183.023438 143.773438 180.988281 144.460938 L 185.355469 138.367188 Z M 180.546875 125.472656 L 182.511719 129.304688 C 181.609375 130.277344 181.640625 131.796875 182.59375 132.734375 C 183.152344 133.28125 183.902344 133.511719 184.621094 133.421875 L 186.617188 137.3125 L 180.132812 132.265625 Z M 181.5625 123.933594 C 181.675781 123.902344 181.792969 123.882812 181.914062 123.882812 L 192.179688 123.792969 L 185.800781 129.003906 C 185.25 128.59375 184.570312 128.4375 183.925781 128.542969 Z M 193.78125 125.148438 C 193.785156 125.167969 193.785156 125.183594 193.785156 125.203125 L 194.179688 130.21875 C 193.949219 130.335938 193.730469 130.492188 193.539062 130.6875 C 192.734375 131.507812 192.617188 132.742188 193.179688 133.683594 L 189.949219 137.699219 C 189.511719 137.558594 189.042969 137.542969 188.597656 137.652344 L 186.066406 132.714844 L 186.078125 132.703125 C 186.710938 132.058594 186.917969 131.15625 186.703125 130.34375 L 193.679688 124.640625 C 193.746094 124.796875 193.78125 124.96875 193.78125 125.148438 Z M 204.09375 144.8125 C 204.164062 145.292969 204.375 145.757812 204.730469 146.136719 L 201.753906 149.171875 C 200.832031 148.28125 199.84375 147.480469 198.789062 146.78125 L 192.5 141.890625 Z M 206.230469 146.902344 C 206.523438 146.9375 206.824219 146.917969 207.109375 146.851562 L 210.867188 157.03125 L 202.933594 150.265625 Z M 194.410156 134.714844 C 195.003906 134.941406 195.664062 134.933594 196.25 134.6875 L 204.617188 142.902344 C 204.53125 143.007812 204.457031 143.117188 204.390625 143.230469 L 191.660156 140.019531 C 191.65625 139.542969 191.511719 139.070312 191.234375 138.664062 Z M 216.261719 156.054688 L 214.328125 157.457031 C 213.816406 156.972656 213.148438 156.753906 212.492188 156.792969 L 208.933594 147.144531 L 216.328125 154.40625 C 216.117188 154.929688 216.09375 155.515625 216.261719 156.054688 Z M 204.941406 136 L 209.824219 131.679688 C 209.835938 131.667969 209.851562 131.652344 209.863281 131.640625 C 209.972656 131.527344 210.101562 131.4375 210.234375 131.371094 L 213.589844 144.492188 Z M 210.878906 129.625 C 210.835938 129.621094 210.796875 129.621094 210.757812 129.625 C 210.023438 129.644531 209.296875 129.933594 208.738281 130.492188 L 203.664062 134.988281 C 201.78125 133.929688 199.804688 133.066406 197.761719 132.398438 C 197.757812 131.765625 197.511719 131.136719 197.023438 130.65625 C 196.667969 130.308594 196.230469 130.089844 195.777344 129.996094 L 195.390625 125.101562 C 195.375 124.230469 194.980469 123.449219 194.367188 122.914062 C 194.34375 122.894531 194.320312 122.871094 194.292969 122.851562 C 193.773438 122.429688 193.109375 122.175781 192.386719 122.183594 L 181.898438 122.277344 C 181.179688 122.28125 180.519531 122.546875 180.007812 122.980469 C 179.980469 123 179.953125 123.023438 179.925781 123.050781 C 179.328125 123.59375 178.949219 124.378906 178.949219 125.25 L 178.535156 132.015625 C 176.847656 132.492188 175.1875 133.105469 173.59375 133.847656 C 173.519531 133.859375 173.445312 133.882812 173.375 133.914062 C 172.519531 134.320312 171.675781 134.765625 170.855469 135.246094 L 165.699219 130.84375 C 164.527344 129.714844 162.652344 129.738281 161.507812 130.902344 L 154.160156 138.386719 C 153.015625 139.550781 153.027344 141.421875 154.179688 142.574219 L 158.671875 147.652344 C 157.300781 150.09375 156.253906 152.691406 155.542969 155.390625 L 148.789062 155.921875 C 147.160156 155.953125 145.851562 157.296875 145.867188 158.929688 L 145.960938 169.414062 C 145.976562 171.046875 147.308594 172.363281 148.9375 172.363281 L 155.699219 172.777344 C 156.457031 175.464844 157.554688 178.042969 158.96875 180.457031 L 154.566406 185.613281 C 153.4375 186.789062 153.460938 188.660156 154.625 189.804688 L 162.105469 197.152344 C 163.269531 198.296875 165.140625 198.285156 166.296875 197.136719 L 171.371094 192.640625 C 173.8125 194.011719 176.410156 195.058594 179.109375 195.769531 L 179.644531 202.523438 C 179.675781 204.152344 181.015625 205.460938 182.648438 205.445312 L 193.132812 205.351562 C 194.765625 205.335938 196.082031 204.003906 196.085938 202.375 L 196.496094 195.613281 C 199.183594 194.855469 201.761719 193.757812 204.179688 192.347656 L 209.335938 196.75 C 210.507812 197.878906 212.378906 197.851562 213.523438 196.6875 L 220.871094 189.207031 C 222.015625 188.042969 222.003906 186.171875 220.855469 185.019531 L 216.363281 179.941406 C 217.730469 177.5 218.78125 174.902344 219.488281 172.203125 L 226.246094 171.667969 C 227.871094 171.636719 229.179688 170.296875 229.164062 168.664062 L 229.117188 163.457031 L 229.117188 163.421875 L 229.113281 162.898438 L 229.113281 162.894531 L 229.070312 158.214844 C 229.054688 156.582031 227.726562 155.265625 226.097656 155.261719 L 221.054688 154.957031 C 220.976562 154.445312 220.742188 153.953125 220.34375 153.5625 C 219.886719 153.109375 219.296875 152.875 218.703125 152.855469 C 218.195312 151.417969 217.585938 150.011719 216.882812 148.652344 C 216.945312 148.601562 217.003906 148.546875 217.0625 148.488281 C 217.851562 147.6875 217.976562 146.480469 217.449219 145.550781 L 220.46875 142.011719 C 221.597656 140.839844 221.574219 138.96875 220.410156 137.824219 L 212.929688 130.476562 C 212.359375 129.917969 211.617188 129.632812 210.878906 129.625 " fill-opacity="1" fill-rule="nonzero"/></g><g fill="#545454" fill-opacity="1"><g transform="translate(10.640075, 275.106375)"><g><path d="M 19.609375 -48.328125 L 31.796875 -48.328125 L 36.015625 -33.421875 L 40.296875 -48.328125 L 52.484375 -48.328125 L 44.515625 -25.25 L 48 -15.1875 L 58.40625 -48.328125 L 72.84375 -48.328125 L 53.921875 0 L 42.890625 0 L 36.015625 -17.296875 L 29.203125 0 L 18.171875 0 L -0.75 -48.328125 L 13.609375 -48.328125 L 24.09375 -15.1875 L 27.4375 -25.25 Z M 19.609375 -48.328125 "/></g></g></g><g fill="#545454" fill-opacity="1"><g transform="translate(82.737283, 275.106375)"><g><path d="M 4.15625 0 L 4.15625 -48.328125 L 24.984375 -48.328125 C 27.347656 -48.328125 29.523438 -47.835938 31.515625 -46.859375 C 33.515625 -45.890625 35.226562 -44.617188 36.65625 -43.046875 C 38.082031 -41.484375 39.203125 -39.691406 40.015625 -37.671875 C 40.835938 -35.660156 41.25 -33.632812 41.25 -31.59375 C 41.25 -29.457031 40.863281 -27.378906 40.09375 -25.359375 C 39.320312 -23.335938 38.242188 -21.539062 36.859375 -19.96875 C 35.472656 -18.40625 33.789062 -17.160156 31.8125 -16.234375 C 29.84375 -15.304688 27.679688 -14.84375 25.328125 -14.84375 L 17.421875 -14.84375 L 17.421875 0 Z M 17.421875 -26.421875 L 24.4375 -26.421875 C 25.257812 -26.421875 26.019531 -26.789062 26.71875 -27.53125 C 27.425781 -28.28125 27.78125 -29.632812 27.78125 -31.59375 C 27.78125 -33.582031 27.367188 -34.941406 26.546875 -35.671875 C 25.734375 -36.398438 24.914062 -36.765625 24.09375 -36.765625 L 17.421875 -36.765625 Z M 17.421875 -26.421875 "/></g></g></g><g fill="#545454" fill-opacity="1"><g transform="translate(124.947179, 275.106375)"><g><path d="M 4.15625 0 L 4.15625 -48.328125 L 24.984375 -48.328125 C 27.347656 -48.328125 29.523438 -47.835938 31.515625 -46.859375 C 33.515625 -45.890625 35.226562 -44.617188 36.65625 -43.046875 C 38.082031 -41.484375 39.203125 -39.691406 40.015625 -37.671875 C 40.835938 -35.660156 41.25 -33.632812 41.25 -31.59375 C 41.25 -29.457031 40.863281 -27.378906 40.09375 -25.359375 C 39.320312 -23.335938 38.242188 -21.539062 36.859375 -19.96875 C 35.472656 -18.40625 33.789062 -17.160156 31.8125 -16.234375 C 29.84375 -15.304688 27.679688 -14.84375 25.328125 -14.84375 L 17.421875 -14.84375 L 17.421875 0 Z M 17.421875 -26.421875 L 24.4375 -26.421875 C 25.257812 -26.421875 26.019531 -26.789062 26.71875 -27.53125 C 27.425781 -28.28125 27.78125 -29.632812 27.78125 -31.59375 C 27.78125 -33.582031 27.367188 -34.941406 26.546875 -35.671875 C 25.734375 -36.398438 24.914062 -36.765625 24.09375 -36.765625 L 17.421875 -36.765625 Z M 17.421875 -26.421875 "/></g></g></g><g fill="#545454" fill-opacity="1"><g transform="translate(167.157075, 275.106375)"><g/></g></g><g fill="#545454" fill-opacity="1"><g transform="translate(182.475184, 275.106375)"><g><path d="M 3.40625 -13 L 3.40625 -24.578125 L 24.71875 -24.578125 L 24.71875 -13 Z M 3.40625 -13 "/></g></g></g><g fill="#545454" fill-opacity="1"><g transform="translate(210.592427, 275.106375)"><g/></g></g><g fill="#545454" fill-opacity="1"><g transform="translate(225.910537, 275.106375)"><g><path d="M 4.15625 0 L 4.15625 -48.328125 L 24.984375 -48.328125 C 27.347656 -48.328125 29.523438 -47.835938 31.515625 -46.859375 C 33.515625 -45.890625 35.226562 -44.617188 36.65625 -43.046875 C 38.082031 -41.484375 39.203125 -39.691406 40.015625 -37.671875 C 40.835938 -35.660156 41.25 -33.632812 41.25 -31.59375 C 41.25 -29.457031 40.863281 -27.378906 40.09375 -25.359375 C 39.320312 -23.335938 38.242188 -21.539062 36.859375 -19.96875 C 35.472656 -18.40625 33.789062 -17.160156 31.8125 -16.234375 C 29.84375 -15.304688 27.679688 -14.84375 25.328125 -14.84375 L 17.421875 -14.84375 L 17.421875 0 Z M 17.421875 -26.421875 L 24.4375 -26.421875 C 25.257812 -26.421875 26.019531 -26.789062 26.71875 -27.53125 C 27.425781 -28.28125 27.78125 -29.632812 27.78125 -31.59375 C 27.78125 -33.582031 27.367188 -34.941406 26.546875 -35.671875 C 25.734375 -36.398438 24.914062 -36.765625 24.09375 -36.765625 L 17.421875 -36.765625 Z M 17.421875 -26.421875 "/></g></g></g><g fill="#545454" fill-opacity="1"><g transform="translate(268.120432, 275.106375)"><g><path d="M 4.15625 0 L 4.15625 -48.328125 L 26.34375 -48.328125 C 28.707031 -48.328125 30.882812 -47.835938 32.875 -46.859375 C 34.875 -45.890625 36.585938 -44.617188 38.015625 -43.046875 C 39.453125 -41.484375 40.578125 -39.691406 41.390625 -37.671875 C 42.203125 -35.660156 42.609375 -33.632812 42.609375 -31.59375 C 42.609375 -28.78125 41.992188 -26.15625 40.765625 -23.71875 C 39.546875 -21.289062 37.847656 -19.304688 35.671875 -17.765625 L 46.5625 0 L 31.59375 0 L 22.390625 -14.84375 L 17.421875 -14.84375 L 17.421875 0 Z M 17.421875 -26.421875 L 25.796875 -26.421875 C 26.617188 -26.421875 27.378906 -26.875 28.078125 -27.78125 C 28.785156 -28.6875 29.140625 -29.957031 29.140625 -31.59375 C 29.140625 -33.269531 28.726562 -34.550781 27.90625 -35.4375 C 27.09375 -36.320312 26.28125 -36.765625 25.46875 -36.765625 L 17.421875 -36.765625 Z M 17.421875 -26.421875 "/></g></g></g><g fill="#545454" fill-opacity="1"><g transform="translate(314.823627, 275.106375)"><g><path d="M 24.640625 0.40625 C 21.191406 0.40625 18.046875 -0.296875 15.203125 -1.703125 C 12.367188 -3.109375 9.941406 -4.957031 7.921875 -7.25 C 5.910156 -9.539062 4.347656 -12.160156 3.234375 -15.109375 C 2.117188 -18.054688 1.5625 -21.097656 1.5625 -24.234375 C 1.5625 -27.410156 2.140625 -30.472656 3.296875 -33.421875 C 4.453125 -36.367188 6.070312 -38.96875 8.15625 -41.21875 C 10.25 -43.46875 12.710938 -45.257812 15.546875 -46.59375 C 18.390625 -47.9375 21.515625 -48.609375 24.921875 -48.609375 C 28.367188 -48.609375 31.507812 -47.90625 34.34375 -46.5 C 37.175781 -45.09375 39.601562 -43.226562 41.625 -40.90625 C 43.644531 -38.59375 45.195312 -35.960938 46.28125 -33.015625 C 47.375 -30.066406 47.921875 -27.050781 47.921875 -23.96875 C 47.921875 -20.789062 47.34375 -17.738281 46.1875 -14.8125 C 45.03125 -11.882812 43.429688 -9.296875 41.390625 -7.046875 C 39.347656 -4.796875 36.894531 -2.988281 34.03125 -1.625 C 31.175781 -0.269531 28.046875 0.40625 24.640625 0.40625 Z M 15.046875 -24.09375 C 15.046875 -22.46875 15.238281 -20.894531 15.625 -19.375 C 16.007812 -17.851562 16.609375 -16.5 17.421875 -15.3125 C 18.242188 -14.132812 19.265625 -13.179688 20.484375 -12.453125 C 21.710938 -11.734375 23.144531 -11.375 24.78125 -11.375 C 26.457031 -11.375 27.90625 -11.742188 29.125 -12.484375 C 30.351562 -13.234375 31.351562 -14.207031 32.125 -15.40625 C 32.90625 -16.613281 33.488281 -17.988281 33.875 -19.53125 C 34.257812 -21.082031 34.453125 -22.648438 34.453125 -24.234375 C 34.453125 -25.867188 34.242188 -27.445312 33.828125 -28.96875 C 33.421875 -30.488281 32.820312 -31.828125 32.03125 -32.984375 C 31.238281 -34.140625 30.226562 -35.066406 29 -35.765625 C 27.769531 -36.472656 26.34375 -36.828125 24.71875 -36.828125 C 23.03125 -36.828125 21.582031 -36.460938 20.375 -35.734375 C 19.175781 -35.015625 18.179688 -34.050781 17.390625 -32.84375 C 16.597656 -31.644531 16.007812 -30.285156 15.625 -28.765625 C 15.238281 -27.242188 15.046875 -25.6875 15.046875 -24.09375 Z M 15.046875 -24.09375 "/></g></g></g><g fill="#009688" fill-opacity="1"><g transform="translate(100.798305, 308.123242)"><g><path d="M 22.515625 0 L 17.5625 0 L 14.796875 -10.75 C 14.691406 -11.132812 14.515625 -11.925781 14.265625 -13.125 C 14.023438 -14.320312 13.882812 -15.128906 13.84375 -15.546875 C 13.789062 -15.035156 13.648438 -14.222656 13.421875 -13.109375 C 13.203125 -11.992188 13.03125 -11.195312 12.90625 -10.71875 L 10.15625 0 L 5.21875 0 L 0 -20.46875 L 4.265625 -20.46875 L 6.890625 -9.296875 C 7.347656 -7.234375 7.675781 -5.445312 7.875 -3.9375 C 7.9375 -4.46875 8.066406 -5.289062 8.265625 -6.40625 C 8.460938 -7.519531 8.648438 -8.382812 8.828125 -9 L 11.8125 -20.46875 L 15.921875 -20.46875 L 18.90625 -9 C 19.03125 -8.488281 19.191406 -7.703125 19.390625 -6.640625 C 19.585938 -5.585938 19.738281 -4.6875 19.84375 -3.9375 C 19.9375 -4.664062 20.082031 -5.570312 20.28125 -6.65625 C 20.488281 -7.738281 20.675781 -8.617188 20.84375 -9.296875 L 23.453125 -20.46875 L 27.71875 -20.46875 Z M 22.515625 0 "/></g></g></g><g fill="#009688" fill-opacity="1"><g transform="translate(128.510878, 308.123242)"><g><path d="M 19.34375 0 L 15.015625 0 L 15.015625 -8.828125 L 6.921875 -8.828125 L 6.921875 0 L 2.578125 0 L 2.578125 -20.46875 L 6.921875 -20.46875 L 6.921875 -12.453125 L 15.015625 -12.453125 L 15.015625 -20.46875 L 19.34375 -20.46875 Z M 19.34375 0 "/></g></g></g><g fill="#009688" fill-opacity="1"><g transform="translate(150.443009, 308.123242)"><g><path d="M 15.109375 0 L 13.625 -4.875 L 6.15625 -4.875 L 4.671875 0 L 0 0 L 7.21875 -20.546875 L 12.53125 -20.546875 L 19.78125 0 Z M 12.59375 -8.515625 C 11.21875 -12.929688 10.441406 -15.425781 10.265625 -16 C 10.097656 -16.582031 9.972656 -17.039062 9.890625 -17.375 C 9.585938 -16.175781 8.707031 -13.222656 7.25 -8.515625 Z M 12.59375 -8.515625 "/></g></g></g><g fill="#009688" fill-opacity="1"><g transform="translate(170.219719, 308.123242)"><g><path d="M 10.46875 0 L 6.125 0 L 6.125 -16.859375 L 0.578125 -16.859375 L 0.578125 -20.46875 L 16.03125 -20.46875 L 16.03125 -16.859375 L 10.46875 -16.859375 Z M 10.46875 0 "/></g></g></g><g fill="#009688" fill-opacity="1"><g transform="translate(186.819269, 308.123242)"><g><path d="M 14.65625 -5.6875 C 14.65625 -3.832031 13.988281 -2.375 12.65625 -1.3125 C 11.332031 -0.25 9.484375 0.28125 7.109375 0.28125 C 4.929688 0.28125 3 -0.128906 1.3125 -0.953125 L 1.3125 -4.984375 C 2.695312 -4.367188 3.867188 -3.929688 4.828125 -3.671875 C 5.785156 -3.421875 6.660156 -3.296875 7.453125 -3.296875 C 8.398438 -3.296875 9.128906 -3.476562 9.640625 -3.84375 C 10.148438 -4.207031 10.40625 -4.75 10.40625 -5.46875 C 10.40625 -5.875 10.289062 -6.234375 10.0625 -6.546875 C 9.84375 -6.859375 9.515625 -7.15625 9.078125 -7.4375 C 8.640625 -7.726562 7.753906 -8.191406 6.421875 -8.828125 C 5.171875 -9.421875 4.234375 -9.988281 3.609375 -10.53125 C 2.984375 -11.070312 2.484375 -11.703125 2.109375 -12.421875 C 1.734375 -13.140625 1.546875 -13.976562 1.546875 -14.9375 C 1.546875 -16.75 2.160156 -18.171875 3.390625 -19.203125 C 4.617188 -20.242188 6.316406 -20.765625 8.484375 -20.765625 C 9.546875 -20.765625 10.5625 -20.632812 11.53125 -20.375 C 12.5 -20.125 13.507812 -19.769531 14.5625 -19.3125 L 13.15625 -15.953125 C 12.0625 -16.398438 11.15625 -16.710938 10.4375 -16.890625 C 9.726562 -17.066406 9.03125 -17.15625 8.34375 -17.15625 C 7.519531 -17.15625 6.890625 -16.960938 6.453125 -16.578125 C 6.015625 -16.191406 5.796875 -15.691406 5.796875 -15.078125 C 5.796875 -14.691406 5.882812 -14.359375 6.0625 -14.078125 C 6.238281 -13.796875 6.519531 -13.519531 6.90625 -13.25 C 7.289062 -12.988281 8.207031 -12.507812 9.65625 -11.8125 C 11.570312 -10.894531 12.882812 -9.976562 13.59375 -9.0625 C 14.300781 -8.144531 14.65625 -7.019531 14.65625 -5.6875 Z M 14.65625 -5.6875 "/></g></g></g><g fill="#009688" fill-opacity="1"><g transform="translate(202.607037, 308.123242)"><g><path d="M 14.65625 -5.6875 C 14.65625 -3.832031 13.988281 -2.375 12.65625 -1.3125 C 11.332031 -0.25 9.484375 0.28125 7.109375 0.28125 C 4.929688 0.28125 3 -0.128906 1.3125 -0.953125 L 1.3125 -4.984375 C 2.695312 -4.367188 3.867188 -3.929688 4.828125 -3.671875 C 5.785156 -3.421875 6.660156 -3.296875 7.453125 -3.296875 C 8.398438 -3.296875 9.128906 -3.476562 9.640625 -3.84375 C 10.148438 -4.207031 10.40625 -4.75 10.40625 -5.46875 C 10.40625 -5.875 10.289062 -6.234375 10.0625 -6.546875 C 9.84375 -6.859375 9.515625 -7.15625 9.078125 -7.4375 C 8.640625 -7.726562 7.753906 -8.191406 6.421875 -8.828125 C 5.171875 -9.421875 4.234375 -9.988281 3.609375 -10.53125 C 2.984375 -11.070312 2.484375 -11.703125 2.109375 -12.421875 C 1.734375 -13.140625 1.546875 -13.976562 1.546875 -14.9375 C 1.546875 -16.75 2.160156 -18.171875 3.390625 -19.203125 C 4.617188 -20.242188 6.316406 -20.765625 8.484375 -20.765625 C 9.546875 -20.765625 10.5625 -20.632812 11.53125 -20.375 C 12.5 -20.125 13.507812 -19.769531 14.5625 -19.3125 L 13.15625 -15.953125 C 12.0625 -16.398438 11.15625 -16.710938 10.4375 -16.890625 C 9.726562 -17.066406 9.03125 -17.15625 8.34375 -17.15625 C 7.519531 -17.15625 6.890625 -16.960938 6.453125 -16.578125 C 6.015625 -16.191406 5.796875 -15.691406 5.796875 -15.078125 C 5.796875 -14.691406 5.882812 -14.359375 6.0625 -14.078125 C 6.238281 -13.796875 6.519531 -13.519531 6.90625 -13.25 C 7.289062 -12.988281 8.207031 -12.507812 9.65625 -11.8125 C 11.570312 -10.894531 12.882812 -9.976562 13.59375 -9.0625 C 14.300781 -8.144531 14.65625 -7.019531 14.65625 -5.6875 Z M 14.65625 -5.6875 "/></g></g></g><g fill="#009688" fill-opacity="1"><g transform="translate(218.394806, 308.123242)"><g><path d="M 15.109375 0 L 13.625 -4.875 L 6.15625 -4.875 L 4.671875 0 L 0 0 L 7.21875 -20.546875 L 12.53125 -20.546875 L 19.78125 0 Z M 12.59375 -8.515625 C 11.21875 -12.929688 10.441406 -15.425781 10.265625 -16 C 10.097656 -16.582031 9.972656 -17.039062 9.890625 -17.375 C 9.585938 -16.175781 8.707031 -13.222656 7.25 -8.515625 Z M 12.59375 -8.515625 "/></g></g></g><g fill="#009688" fill-opacity="1"><g transform="translate(238.171515, 308.123242)"><g><path d="M 6.921875 -10.84375 L 8.34375 -10.84375 C 9.675781 -10.84375 10.671875 -11.101562 11.328125 -11.625 C 11.992188 -12.15625 12.328125 -12.925781 12.328125 -13.9375 C 12.328125 -14.945312 12.050781 -15.691406 11.5 -16.171875 C 10.945312 -16.660156 10.078125 -16.90625 8.890625 -16.90625 L 6.921875 -16.90625 Z M 16.71875 -14.078125 C 16.71875 -11.878906 16.03125 -10.195312 14.65625 -9.03125 C 13.28125 -7.863281 11.320312 -7.28125 8.78125 -7.28125 L 6.921875 -7.28125 L 6.921875 0 L 2.578125 0 L 2.578125 -20.46875 L 9.109375 -20.46875 C 11.597656 -20.46875 13.488281 -19.929688 14.78125 -18.859375 C 16.070312 -17.796875 16.71875 -16.203125 16.71875 -14.078125 Z M 16.71875 -14.078125 "/></g></g></g><g fill="#009688" fill-opacity="1"><g transform="translate(256.17069, 308.123242)"><g><path d="M 6.921875 -10.84375 L 8.34375 -10.84375 C 9.675781 -10.84375 10.671875 -11.101562 11.328125 -11.625 C 11.992188 -12.15625 12.328125 -12.925781 12.328125 -13.9375 C 12.328125 -14.945312 12.050781 -15.691406 11.5 -16.171875 C 10.945312 -16.660156 10.078125 -16.90625 8.890625 -16.90625 L 6.921875 -16.90625 Z M 16.71875 -14.078125 C 16.71875 -11.878906 16.03125 -10.195312 14.65625 -9.03125 C 13.28125 -7.863281 11.320312 -7.28125 8.78125 -7.28125 L 6.921875 -7.28125 L 6.921875 0 L 2.578125 0 L 2.578125 -20.46875 L 9.109375 -20.46875 C 11.597656 -20.46875 13.488281 -19.929688 14.78125 -18.859375 C 16.070312 -17.796875 16.71875 -16.203125 16.71875 -14.078125 Z M 16.71875 -14.078125 "/></g></g></g></svg>