<svg xmlns="http://www.w3.org/2000/svg" xmlns:xlink="http://www.w3.org/1999/xlink" width="500" zoomAndPan="magnify" viewBox="0 0 375 374.999991" height="500" preserveAspectRatio="xMidYMid meet" version="1.0"><defs><clipPath id="51e3fb501d"><path d="M 10.601562 10.390625 L 364.601562 10.390625 L 364.601562 364.390625 L 10.601562 364.390625 Z M 10.601562 10.390625 " clip-rule="nonzero"/></clipPath></defs><g clip-path="url(#51e3fb501d)"><path fill="#fce4ec" d="M 322.632812 90.0625 C 322.578125 90.121094 322.527344 90.179688 322.472656 90.238281 L 309.652344 105.253906 C 308.234375 104.671875 306.714844 104.410156 305.207031 104.476562 L 291.660156 51.480469 L 322.558594 81.832031 C 324.847656 84.082031 324.882812 87.773438 322.632812 90.0625 Z M 312.695312 140.484375 L 278.675781 107.070312 C 279.296875 103.753906 278.308594 100.199219 275.71875 97.660156 C 273.132812 95.117188 269.5625 94.195312 266.261719 94.875 L 232.3125 61.53125 C 240.003906 64.261719 247.441406 67.707031 254.539062 71.824219 L 295.570312 112.117188 C 294.582031 115.671875 295.5 119.640625 298.316406 122.40625 C 300.425781 124.476562 303.191406 125.472656 305.929688 125.402344 C 308.5 130.289062 310.757812 135.324219 312.695312 140.484375 Z M 351.4375 157.875 C 354.648438 157.847656 357.285156 160.4375 357.3125 163.644531 L 357.433594 176.789062 L 329.398438 156.542969 L 351.203125 157.867188 C 351.277344 157.871094 351.359375 157.875 351.4375 157.875 Z M 281.859375 183.039062 L 289.679688 177.371094 C 293.628906 179.335938 298.554688 178.648438 301.8125 175.332031 C 304.195312 172.902344 305.15625 169.609375 304.699219 166.480469 L 313.777344 159.90625 C 316.757812 161.964844 320.5625 162.304688 323.8125 160.929688 L 353.53125 182.394531 Z M 267.28125 152.9375 C 266.789062 151.800781 266.273438 150.679688 265.734375 149.570312 L 284.21875 165.328125 C 283.601562 167.679688 283.8125 170.203125 284.859375 172.433594 L 274.113281 180.214844 C 273.34375 170.785156 271.054688 161.632812 267.28125 152.9375 Z M 188.324219 267.277344 C 144.222656 267.675781 108.023438 232.121094 107.628906 188.023438 C 107.355469 157.941406 124.195312 130.109375 150.761719 116.292969 C 151.359375 116.171875 151.917969 115.894531 152.375 115.480469 C 152.425781 115.457031 152.476562 115.433594 152.519531 115.410156 C 152.820312 115.355469 153.113281 115.269531 153.390625 115.132812 C 163.890625 110.15625 175.160156 107.578125 186.886719 107.46875 C 203.53125 107.324219 219.050781 112.292969 231.945312 120.914062 L 241.074219 128.019531 C 257.148438 142.492188 267.347656 163.382812 267.578125 186.65625 C 267.933594 230.722656 232.398438 266.882812 188.324219 267.277344 Z M 155.828125 61.683594 L 173.035156 75.078125 L 154.023438 101.605469 Z M 133.617188 65.226562 C 138.644531 63 143.828125 61.085938 149.089844 59.507812 L 147.507812 94.574219 Z M 184.535156 84.023438 C 183.738281 87.457031 184.695312 91.214844 187.394531 93.867188 C 190.707031 97.121094 195.625 97.71875 199.539062 95.699219 L 209.4375 103.40625 C 202.101562 101.5 194.535156 100.574219 186.824219 100.644531 C 177.535156 100.726562 168.511719 102.246094 159.875 105.15625 L 178.429688 79.273438 Z M 157.988281 24.484375 L 166.332031 40.765625 C 162.507812 44.90625 162.636719 51.363281 166.6875 55.339844 C 169.054688 57.664062 172.25 58.632812 175.304688 58.257812 L 183.773438 74.78125 L 156.230469 53.347656 Z M 162.308594 17.945312 C 162.785156 17.816406 163.285156 17.742188 163.800781 17.738281 L 207.417969 17.347656 L 180.308594 39.496094 C 177.980469 37.746094 175.09375 37.089844 172.351562 37.53125 Z M 214.222656 23.109375 C 214.226562 23.1875 214.230469 23.265625 214.234375 23.347656 L 215.917969 44.644531 C 214.925781 45.148438 214 45.808594 213.183594 46.644531 C 209.769531 50.121094 209.273438 55.375 211.667969 59.367188 L 197.9375 76.429688 C 196.074219 75.832031 194.085938 75.769531 192.195312 76.238281 L 181.441406 55.261719 L 181.492188 55.207031 C 184.179688 52.46875 185.058594 48.636719 184.140625 45.179688 L 213.789062 20.957031 C 214.066406 21.621094 214.214844 22.347656 214.222656 23.109375 Z M 258.019531 106.648438 C 258.320312 108.691406 259.226562 110.667969 260.730469 112.277344 L 248.085938 125.175781 C 244.179688 121.378906 239.96875 117.992188 235.488281 115.019531 L 208.769531 94.230469 Z M 267.113281 115.523438 C 268.359375 115.675781 269.621094 115.601562 270.847656 115.308594 L 286.808594 158.5625 L 253.09375 129.816406 Z M 216.898438 63.757812 C 219.414062 64.722656 222.222656 64.679688 224.710938 63.636719 L 260.246094 98.539062 C 259.886719 98.980469 259.570312 99.445312 259.292969 99.925781 L 205.203125 86.289062 C 205.183594 84.269531 204.582031 82.257812 203.402344 80.527344 Z M 309.726562 154.40625 L 301.507812 160.363281 C 299.328125 158.316406 296.488281 157.375 293.710938 157.542969 L 278.589844 116.554688 L 310 147.40625 C 309.105469 149.640625 309.015625 152.121094 309.726562 154.40625 Z M 261.632812 69.214844 L 282.367188 50.855469 C 282.429688 50.800781 282.488281 50.742188 282.539062 50.6875 C 283.011719 50.210938 283.546875 49.832031 284.117188 49.550781 L 298.367188 105.292969 Z M 286.851562 42.128906 C 286.679688 42.117188 286.511719 42.117188 286.34375 42.128906 C 283.222656 42.21875 280.132812 43.445312 277.757812 45.8125 L 256.195312 64.90625 C 248.195312 60.421875 239.800781 56.746094 231.121094 53.914062 C 231.105469 51.226562 230.058594 48.542969 227.988281 46.511719 C 226.476562 45.027344 224.628906 44.097656 222.691406 43.710938 L 221.050781 22.917969 C 220.980469 19.210938 219.308594 15.894531 216.707031 13.625 C 216.605469 13.527344 216.5 13.441406 216.390625 13.359375 C 214.183594 11.554688 211.355469 10.480469 208.289062 10.507812 L 163.742188 10.90625 C 160.679688 10.9375 157.875 12.058594 155.699219 13.894531 C 155.578125 13.988281 155.464844 14.085938 155.359375 14.191406 C 152.8125 16.511719 151.207031 19.847656 151.203125 23.546875 L 149.453125 52.28125 C 142.273438 54.308594 135.222656 56.921875 128.453125 60.070312 C 128.140625 60.121094 127.828125 60.214844 127.53125 60.351562 C 123.898438 62.074219 120.304688 63.976562 116.816406 66.011719 L 94.910156 47.3125 C 89.929688 42.515625 81.972656 42.613281 77.113281 47.5625 L 45.898438 79.347656 C 41.039062 84.289062 41.082031 92.25 45.96875 97.144531 L 65.058594 118.710938 C 59.242188 129.085938 54.78125 140.121094 51.773438 151.589844 L 23.074219 153.851562 C 16.15625 153.988281 10.597656 159.683594 10.664062 166.621094 L 11.066406 211.164062 C 11.125 218.097656 16.785156 223.695312 23.703125 223.703125 L 52.4375 225.453125 C 55.652344 236.867188 60.308594 247.820312 66.3125 258.085938 L 47.613281 279.992188 C 42.816406 284.972656 42.917969 292.933594 47.863281 297.792969 L 79.644531 329.007812 C 84.59375 333.867188 92.546875 333.824219 97.449219 328.9375 L 119.011719 309.847656 C 129.382812 315.664062 140.421875 320.121094 151.890625 323.128906 L 154.15625 351.832031 C 154.285156 358.75 159.988281 364.304688 166.917969 364.242188 L 211.464844 363.839844 C 218.402344 363.777344 224 358.121094 224.003906 351.203125 L 225.753906 322.464844 C 237.167969 319.253906 248.125 314.59375 258.390625 308.589844 L 280.292969 327.292969 C 285.277344 332.089844 293.234375 331.988281 298.09375 327.042969 L 329.308594 295.261719 C 334.167969 290.3125 334.125 282.355469 329.238281 277.457031 L 310.148438 255.894531 C 315.964844 245.523438 320.425781 234.484375 323.433594 223.015625 L 352.132812 220.75 C 359.046875 220.617188 364.601562 214.917969 364.542969 207.984375 L 364.34375 185.855469 L 364.34375 185.710938 L 364.320312 183.484375 L 364.320312 183.476562 L 364.144531 163.582031 C 364.082031 156.652344 358.421875 151.050781 351.503906 151.046875 L 330.078125 149.742188 C 329.757812 147.566406 328.75 145.476562 327.058594 143.816406 C 325.117188 141.90625 322.613281 140.910156 320.089844 140.828125 C 317.933594 134.707031 315.351562 128.742188 312.367188 122.96875 C 312.625 122.753906 312.878906 122.523438 313.125 122.269531 C 316.472656 118.863281 317.011719 113.742188 314.769531 109.785156 L 327.597656 94.757812 C 332.390625 89.773438 332.289062 81.816406 327.34375 76.957031 L 295.5625 45.742188 C 293.144531 43.367188 290 42.160156 286.851562 42.128906 " fill-opacity="1" fill-rule="nonzero"/></g></svg>