<svg xmlns="http://www.w3.org/2000/svg" xmlns:xlink="http://www.w3.org/1999/xlink" width="500" zoomAndPan="magnify" viewBox="0 0 375 374.999991" height="500" preserveAspectRatio="xMidYMid meet" version="1.0"><defs><clipPath id="14d94598a5"><path d="M 63.148438 62.855469 L 312 62.855469 L 312 232.8125 L 63.148438 232.8125 Z M 63.148438 62.855469 " clip-rule="nonzero"/></clipPath><clipPath id="f886ea49b9"><path d="M 63 142.171875 L 311.847656 142.171875 L 311.847656 312.128906 L 63 312.128906 Z M 63 142.171875 " clip-rule="nonzero"/></clipPath><clipPath id="3b034c1ce5"><path d="M 140.476562 140.429688 L 234.558594 140.429688 L 234.558594 234.511719 L 140.476562 234.511719 Z M 140.476562 140.429688 " clip-rule="nonzero"/></clipPath></defs><g clip-path="url(#14d94598a5)"><path fill="#ffffff" d="M 311.988281 171.355469 L 311.988281 203.351562 C 311.988281 207.003906 309.035156 209.96875 305.386719 209.984375 C 305.363281 209.984375 305.347656 209.984375 305.328125 209.988281 L 283.691406 211.5 C 283.222656 211.53125 282.832031 211.859375 282.714844 212.3125 C 280.914062 219.210938 278.386719 225.808594 275.210938 232.027344 C 275.210938 232.035156 275.207031 232.035156 275.203125 232.039062 C 274.894531 232.632812 274.128906 232.804688 273.597656 232.402344 L 253.707031 217.25 C 253.3125 216.945312 253.167969 216.410156 253.367188 215.953125 C 254.496094 213.367188 255.46875 210.699219 256.289062 207.96875 C 257.335938 204.46875 258.125 200.855469 258.628906 197.15625 C 258.929688 194.9375 259.132812 192.6875 259.230469 190.410156 C 259.273438 189.398438 259.292969 188.378906 259.292969 187.351562 C 259.292969 185.382812 259.214844 183.433594 259.058594 181.503906 C 257.367188 160.492188 246.628906 142.039062 230.742188 130.039062 C 218.734375 120.96875 203.785156 115.589844 187.582031 115.589844 C 147.972656 115.589844 115.867188 147.71875 115.867188 187.351562 C 115.867188 197.519531 117.980469 207.191406 121.789062 215.953125 C 121.988281 216.414062 121.847656 216.945312 121.449219 217.25 L 119.585938 218.671875 L 101.574219 232.394531 C 101.039062 232.800781 100.261719 232.625 99.953125 232.027344 C 99.914062 231.957031 99.878906 231.882812 99.839844 231.8125 C 99.789062 231.714844 99.738281 231.617188 99.691406 231.519531 C 98.125 228.402344 96.714844 225.183594 95.480469 221.886719 C 94.3125 218.765625 93.296875 215.574219 92.445312 212.3125 C 92.328125 211.859375 91.933594 211.53125 91.46875 211.5 L 69.835938 209.988281 C 69.816406 209.984375 69.796875 209.984375 69.773438 209.984375 C 66.128906 209.96875 63.175781 207.003906 63.175781 203.351562 L 63.175781 171.355469 C 63.175781 167.699219 66.128906 164.734375 69.773438 164.722656 C 69.796875 164.722656 69.816406 164.71875 69.835938 164.71875 L 91.46875 163.203125 C 91.933594 163.171875 92.328125 162.84375 92.445312 162.390625 C 94.738281 153.621094 98.207031 145.328125 102.679688 137.691406 C 102.914062 137.289062 102.867188 136.78125 102.5625 136.425781 L 88.324219 120.039062 C 88.3125 120.027344 88.300781 120.011719 88.285156 120 C 85.71875 117.40625 85.726562 113.222656 88.308594 110.636719 L 102.085938 96.847656 L 110.917969 88.011719 C 113.496094 85.429688 117.683594 85.421875 120.273438 87.992188 C 120.285156 88.003906 120.300781 88.019531 120.316406 88.03125 L 136.691406 102.277344 C 137.039062 102.582031 137.550781 102.628906 137.957031 102.390625 C 145.585938 97.917969 153.871094 94.445312 162.636719 92.152344 C 163.089844 92.035156 163.417969 91.644531 163.449219 91.175781 L 164.960938 69.527344 C 164.960938 69.507812 164.960938 69.488281 164.960938 69.46875 C 164.980469 65.816406 167.941406 62.863281 171.59375 62.863281 L 203.570312 62.863281 C 207.222656 62.863281 210.183594 65.816406 210.199219 69.46875 C 210.199219 69.488281 210.199219 69.507812 210.203125 69.527344 L 211.710938 91.175781 C 211.742188 91.644531 212.074219 92.035156 212.527344 92.152344 C 221.289062 94.445312 229.574219 97.917969 237.207031 102.390625 C 237.609375 102.628906 238.117188 102.582031 238.472656 102.277344 L 241.234375 99.875 L 254.847656 88.03125 C 254.863281 88.019531 254.875 88.003906 254.890625 87.992188 C 257.476562 85.421875 261.664062 85.429688 264.242188 88.011719 L 273.074219 96.847656 L 286.855469 110.636719 C 289.4375 113.222656 289.445312 117.40625 286.875 120 C 286.859375 120.011719 286.847656 120.027344 286.835938 120.039062 L 272.597656 136.425781 C 272.292969 136.78125 272.246094 137.289062 272.484375 137.691406 C 276.34375 144.289062 279.460938 151.375 281.714844 158.835938 C 282.070312 160.011719 282.402344 161.195312 282.714844 162.390625 C 282.832031 162.84375 283.226562 163.171875 283.691406 163.203125 L 286.898438 163.429688 L 289.574219 163.617188 L 297.59375 164.175781 L 305.328125 164.71875 C 305.347656 164.71875 305.363281 164.722656 305.386719 164.722656 C 309.035156 164.734375 311.988281 167.699219 311.988281 171.355469 " fill-opacity="1" fill-rule="nonzero"/></g><g clip-path="url(#f886ea49b9)"><path fill="#ffffff" d="M 63.007812 203.632812 L 63.007812 171.636719 C 63.007812 167.980469 65.960938 165.019531 69.609375 165 C 69.628906 165 69.648438 165 69.667969 165 L 91.300781 163.488281 C 91.769531 163.453125 92.164062 163.125 92.28125 162.675781 C 94.082031 155.777344 96.609375 149.175781 99.785156 142.957031 C 99.785156 142.953125 99.789062 142.949219 99.792969 142.949219 C 100.097656 142.351562 100.867188 142.179688 101.398438 142.585938 L 121.289062 157.738281 C 121.683594 158.039062 121.824219 158.578125 121.628906 159.035156 C 120.5 161.621094 119.527344 164.285156 118.707031 167.019531 C 117.660156 170.519531 116.871094 174.128906 116.367188 177.832031 C 116.0625 180.050781 115.863281 182.296875 115.765625 184.574219 C 115.722656 185.589844 115.703125 186.609375 115.703125 187.636719 C 115.703125 189.601562 115.78125 191.550781 115.9375 193.480469 C 117.628906 214.492188 128.367188 232.949219 144.25 244.945312 C 156.257812 254.019531 171.210938 259.394531 187.414062 259.394531 C 227.023438 259.394531 259.128906 227.265625 259.128906 187.636719 C 259.128906 177.464844 257.015625 167.796875 253.203125 159.03125 C 253.007812 158.574219 253.148438 158.039062 253.542969 157.738281 L 255.410156 156.316406 L 273.421875 142.59375 C 273.957031 142.1875 274.734375 142.359375 275.042969 142.957031 C 275.082031 143.03125 275.117188 143.101562 275.15625 143.175781 C 275.207031 143.273438 275.253906 143.367188 275.304688 143.46875 C 276.871094 146.585938 278.28125 149.800781 279.515625 153.101562 C 280.683594 156.21875 281.695312 159.414062 282.546875 162.675781 C 282.667969 163.125 283.058594 163.453125 283.527344 163.488281 L 305.160156 165 C 305.179688 165 305.199219 165 305.222656 165 C 308.867188 165.019531 311.820312 167.980469 311.820312 171.636719 L 311.820312 203.632812 C 311.820312 207.285156 308.867188 210.25 305.222656 210.265625 C 305.199219 210.265625 305.179688 210.269531 305.160156 210.269531 L 283.527344 211.78125 C 283.058594 211.8125 282.667969 212.140625 282.546875 212.597656 C 280.257812 221.363281 276.789062 229.65625 272.316406 237.292969 C 272.082031 237.699219 272.128906 238.207031 272.433594 238.5625 L 286.667969 254.945312 C 286.683594 254.960938 286.695312 254.972656 286.710938 254.988281 C 289.277344 257.582031 289.269531 261.765625 286.6875 264.347656 L 272.910156 278.136719 L 264.078125 286.972656 C 261.496094 289.558594 257.3125 289.566406 254.722656 286.992188 C 254.710938 286.980469 254.695312 286.96875 254.679688 286.957031 L 238.304688 272.710938 C 237.957031 272.402344 237.445312 272.359375 237.039062 272.59375 C 229.40625 277.066406 221.125 280.539062 212.359375 282.832031 C 211.90625 282.953125 211.578125 283.34375 211.546875 283.8125 L 210.035156 305.460938 C 210.03125 305.480469 210.03125 305.5 210.03125 305.515625 C 210.015625 309.171875 207.054688 312.125 203.402344 312.125 L 171.425781 312.125 C 167.773438 312.125 164.8125 309.171875 164.796875 305.515625 C 164.796875 305.5 164.796875 305.480469 164.792969 305.460938 L 163.285156 283.8125 C 163.253906 283.34375 162.921875 282.953125 162.46875 282.832031 C 153.707031 280.539062 145.421875 277.066406 137.785156 272.59375 C 137.386719 272.359375 136.878906 272.402344 136.523438 272.710938 L 133.761719 275.113281 L 120.148438 286.957031 C 120.132812 286.96875 120.121094 286.980469 120.105469 286.992188 C 117.515625 289.566406 113.332031 289.558594 110.75 286.972656 L 101.921875 278.136719 L 88.140625 264.347656 C 85.558594 261.765625 85.550781 257.582031 88.121094 254.988281 C 88.136719 254.972656 88.144531 254.960938 88.160156 254.945312 L 102.394531 238.5625 C 102.703125 238.207031 102.746094 237.699219 102.511719 237.292969 C 98.652344 230.695312 95.535156 223.613281 93.28125 216.148438 C 92.925781 214.972656 92.589844 213.789062 92.28125 212.597656 C 92.164062 212.140625 91.769531 211.8125 91.300781 211.78125 L 88.097656 211.558594 L 85.421875 211.371094 L 77.402344 210.808594 L 69.667969 210.269531 C 69.648438 210.269531 69.628906 210.265625 69.609375 210.265625 C 65.960938 210.25 63.007812 207.285156 63.007812 203.632812 " fill-opacity="1" fill-rule="nonzero"/></g><g clip-path="url(#3b034c1ce5)"><path fill="#717273" d="M 223.40625 161.605469 C 223.390625 161.617188 223.378906 161.636719 223.363281 161.652344 L 219.957031 165.640625 C 219.578125 165.488281 219.175781 165.417969 218.773438 165.433594 L 215.175781 151.351562 L 223.386719 159.417969 C 223.996094 160.015625 224.003906 160.996094 223.40625 161.605469 Z M 220.765625 175.003906 L 211.722656 166.125 C 211.886719 165.242188 211.625 164.296875 210.9375 163.625 C 210.25 162.949219 209.300781 162.703125 208.421875 162.882812 L 199.402344 154.019531 C 201.445312 154.746094 203.421875 155.660156 205.308594 156.757812 L 216.210938 167.464844 C 215.949219 168.410156 216.195312 169.464844 216.941406 170.199219 C 217.503906 170.75 218.238281 171.015625 218.964844 170.996094 C 219.648438 172.292969 220.25 173.632812 220.765625 175.003906 Z M 231.0625 179.625 C 231.914062 179.621094 232.617188 180.308594 232.621094 181.160156 L 232.65625 184.652344 L 225.203125 179.273438 L 231 179.625 C 231.019531 179.625 231.039062 179.625 231.0625 179.625 Z M 212.570312 186.3125 L 214.648438 184.808594 C 215.699219 185.332031 217.007812 185.148438 217.871094 184.265625 C 218.503906 183.621094 218.761719 182.746094 218.640625 181.914062 L 221.050781 180.167969 C 221.84375 180.714844 222.855469 180.804688 223.71875 180.4375 L 231.617188 186.144531 Z M 208.695312 178.3125 C 208.566406 178.011719 208.425781 177.714844 208.285156 177.417969 L 213.195312 181.605469 C 213.03125 182.230469 213.089844 182.902344 213.367188 183.496094 L 210.511719 185.5625 C 210.304688 183.058594 209.699219 180.625 208.695312 178.3125 Z M 187.710938 208.703125 C 175.988281 208.808594 166.367188 199.359375 166.261719 187.636719 C 166.191406 179.644531 170.667969 172.246094 177.726562 168.574219 C 177.886719 168.542969 178.035156 168.46875 178.15625 168.359375 C 178.167969 168.351562 178.183594 168.347656 178.195312 168.339844 C 178.273438 168.328125 178.351562 168.304688 178.425781 168.265625 C 181.21875 166.945312 184.210938 166.257812 187.328125 166.230469 C 191.75 166.191406 195.875 167.511719 199.304688 169.804688 L 201.730469 171.691406 C 206 175.539062 208.710938 181.089844 208.773438 187.277344 C 208.867188 198.988281 199.421875 208.597656 187.710938 208.703125 Z M 179.074219 154.0625 L 183.648438 157.621094 L 178.59375 164.671875 Z M 173.171875 155.003906 C 174.507812 154.410156 175.882812 153.902344 177.28125 153.484375 L 176.863281 162.800781 Z M 186.703125 160 C 186.492188 160.910156 186.746094 161.910156 187.464844 162.613281 C 188.34375 163.480469 189.652344 163.640625 190.691406 163.101562 L 193.320312 165.148438 C 191.371094 164.644531 189.359375 164.398438 187.3125 164.417969 C 184.84375 164.4375 182.445312 164.839844 180.148438 165.617188 L 185.082031 158.738281 Z M 179.648438 144.175781 L 181.867188 148.503906 C 180.847656 149.601562 180.882812 151.316406 181.960938 152.375 C 182.589844 152.992188 183.4375 153.25 184.25 153.152344 L 186.5 157.542969 L 179.179688 151.847656 Z M 180.796875 142.4375 C 180.921875 142.402344 181.054688 142.382812 181.191406 142.382812 L 192.785156 142.277344 L 185.578125 148.164062 C 184.960938 147.699219 184.195312 147.527344 183.464844 147.644531 Z M 194.59375 143.808594 C 194.59375 143.832031 194.59375 143.851562 194.597656 143.871094 L 195.042969 149.53125 C 194.78125 149.667969 194.535156 149.84375 194.316406 150.0625 C 193.410156 150.988281 193.277344 152.382812 193.914062 153.445312 L 190.265625 157.980469 C 189.769531 157.820312 189.242188 157.804688 188.738281 157.929688 L 185.882812 152.355469 L 185.894531 152.339844 C 186.609375 151.613281 186.84375 150.59375 186.597656 149.675781 L 194.476562 143.238281 C 194.550781 143.414062 194.59375 143.605469 194.59375 143.808594 Z M 206.234375 166.011719 C 206.3125 166.554688 206.554688 167.078125 206.953125 167.507812 L 203.59375 170.9375 C 202.554688 169.925781 201.4375 169.027344 200.246094 168.238281 L 193.144531 162.710938 Z M 208.648438 168.371094 C 208.980469 168.410156 209.316406 168.390625 209.644531 168.3125 L 213.882812 179.808594 L 204.925781 172.167969 Z M 195.304688 154.613281 C 195.972656 154.867188 196.71875 154.859375 197.378906 154.582031 L 206.824219 163.855469 C 206.730469 163.972656 206.644531 164.097656 206.570312 164.226562 L 192.195312 160.601562 C 192.191406 160.0625 192.03125 159.53125 191.71875 159.070312 Z M 219.976562 178.703125 L 217.792969 180.289062 C 217.210938 179.742188 216.457031 179.492188 215.71875 179.539062 L 211.699219 168.644531 L 220.046875 176.84375 C 219.8125 177.4375 219.789062 178.097656 219.976562 178.703125 Z M 207.191406 156.0625 L 212.703125 151.183594 C 212.71875 151.167969 212.738281 151.152344 212.75 151.140625 C 212.875 151.011719 213.019531 150.910156 213.167969 150.835938 L 216.957031 165.652344 Z M 213.894531 148.863281 C 213.851562 148.859375 213.804688 148.859375 213.761719 148.863281 C 212.933594 148.886719 212.109375 149.214844 211.480469 149.84375 L 205.75 154.917969 C 203.621094 153.726562 201.390625 152.75 199.085938 151.996094 C 199.082031 151.28125 198.800781 150.570312 198.253906 150.03125 C 197.851562 149.632812 197.359375 149.386719 196.84375 149.285156 L 196.40625 143.757812 C 196.390625 142.773438 195.945312 141.890625 195.253906 141.289062 C 195.226562 141.261719 195.199219 141.242188 195.171875 141.21875 C 194.582031 140.738281 193.832031 140.453125 193.015625 140.460938 L 181.175781 140.566406 C 180.363281 140.574219 179.617188 140.871094 179.039062 141.359375 C 179.007812 141.386719 178.976562 141.410156 178.949219 141.441406 C 178.273438 142.054688 177.847656 142.941406 177.84375 143.925781 L 177.378906 151.5625 C 175.472656 152.101562 173.597656 152.796875 171.796875 153.632812 C 171.714844 153.644531 171.632812 153.671875 171.554688 153.707031 C 170.585938 154.164062 169.632812 154.671875 168.707031 155.210938 L 162.882812 150.242188 C 161.558594 148.96875 159.445312 148.992188 158.152344 150.308594 L 149.855469 158.753906 C 148.566406 160.070312 148.578125 162.183594 149.875 163.484375 L 154.949219 169.21875 C 153.40625 171.976562 152.21875 174.90625 151.417969 177.957031 L 143.792969 178.558594 C 141.953125 178.59375 140.476562 180.105469 140.492188 181.949219 L 140.601562 193.789062 C 140.617188 195.632812 142.121094 197.121094 143.957031 197.121094 L 151.597656 197.585938 C 152.449219 200.621094 153.6875 203.53125 155.285156 206.261719 L 150.3125 212.082031 C 149.039062 213.40625 149.066406 215.519531 150.378906 216.8125 L 158.828125 225.109375 C 160.140625 226.398438 162.257812 226.390625 163.558594 225.089844 L 169.289062 220.015625 C 172.046875 221.5625 174.980469 222.746094 178.027344 223.546875 L 178.628906 231.175781 C 178.664062 233.011719 180.179688 234.488281 182.023438 234.472656 L 193.859375 234.367188 C 195.703125 234.351562 197.191406 232.847656 197.195312 231.007812 L 197.660156 223.371094 C 200.691406 222.515625 203.601562 221.277344 206.332031 219.683594 L 212.152344 224.652344 C 213.476562 225.929688 215.59375 225.902344 216.882812 224.585938 L 225.179688 216.140625 C 226.472656 214.824219 226.460938 212.710938 225.160156 211.40625 L 220.085938 205.675781 C 221.632812 202.921875 222.820312 199.988281 223.617188 196.9375 L 231.246094 196.335938 C 233.082031 196.300781 234.558594 194.785156 234.542969 192.945312 L 234.492188 187.0625 L 234.492188 187.023438 L 234.484375 186.433594 L 234.484375 186.429688 L 234.4375 181.144531 C 234.421875 179.300781 232.917969 177.8125 231.078125 177.8125 L 225.386719 177.464844 C 225.300781 176.886719 225.03125 176.332031 224.582031 175.890625 C 224.066406 175.382812 223.402344 175.117188 222.730469 175.09375 C 222.15625 173.46875 221.472656 171.882812 220.675781 170.351562 C 220.746094 170.292969 220.8125 170.230469 220.878906 170.164062 C 221.769531 169.257812 221.914062 167.898438 221.316406 166.84375 L 224.726562 162.851562 C 226 161.527344 225.972656 159.414062 224.660156 158.121094 L 216.210938 149.824219 C 215.566406 149.191406 214.734375 148.875 213.894531 148.863281 " fill-opacity="1" fill-rule="nonzero"/></g></svg>