<svg xmlns="http://www.w3.org/2000/svg" xmlns:xlink="http://www.w3.org/1999/xlink" width="500" zoomAndPan="magnify" viewBox="0 0 375 374.999991" height="500" preserveAspectRatio="xMidYMid meet" version="1.0"><defs><clipPath id="808ad8ced0"><path d="M 28.125 28.125 L 346.875 28.125 L 346.875 346.875 L 28.125 346.875 Z M 28.125 28.125 " clip-rule="nonzero"/></clipPath></defs><g clip-path="url(#808ad8ced0)"><path fill="#353434" d="M 346.9375 187.554688 C 346.9375 275.578125 275.578125 346.9375 187.554688 346.9375 C 99.53125 346.9375 28.167969 275.578125 28.167969 187.554688 C 28.171875 99.53125 99.53125 28.167969 187.554688 28.167969 C 275.578125 28.171875 346.9375 99.53125 346.9375 187.554688 " fill-opacity="1" fill-rule="nonzero"/></g><path fill="#2c983f" d="M 40.574219 187.554688 L 187.554688 102.984375 L 334.535156 187.554688 L 187.554688 272.125 L 40.574219 187.554688 M 336.421875 187.554688 C 336.421875 105.351562 269.789062 38.71875 187.597656 38.695312 L 187.511719 38.695312 C 105.3125 38.714844 38.699219 105.351562 38.699219 187.550781 C 38.695312 269.765625 105.34375 336.417969 187.554688 336.417969 C 269.769531 336.417969 336.421875 269.765625 336.421875 187.550781 " fill-opacity="1" fill-rule="nonzero"/><path fill="#cfca1c" d="M 187.554688 242.703125 C 157.972656 242.703125 133.988281 218.722656 133.988281 189.140625 C 133.988281 182.203125 135.320312 175.589844 137.71875 169.507812 L 137.730469 169.457031 C 138.019531 168.726562 138.332031 168.007812 138.640625 167.289062 L 138.683594 167.203125 C 139.007812 166.496094 139.339844 165.800781 139.683594 165.101562 L 139.726562 165.015625 C 148.558594 147.550781 166.648438 135.574219 187.554688 135.574219 C 216.167969 135.574219 239.53125 158.003906 241.03125 186.246094 L 241.042969 186.34375 C 241.097656 187.265625 241.117188 188.195312 241.117188 189.140625 C 241.117188 190.148438 241.085938 191.15625 241.03125 192.164062 L 241.023438 192.28125 C 240.957031 193.257812 240.882812 194.222656 240.765625 195.175781 L 240.765625 195.1875 C 237.761719 221.914062 215.097656 242.703125 187.554688 242.703125 M 187.554688 102.984375 L 40.574219 187.554688 L 187.554688 272.125 L 334.535156 187.554688 L 187.554688 102.984375 " fill-opacity="1" fill-rule="nonzero"/><path fill="#234974" d="M 241.117188 189.140625 C 241.117188 190.148438 241.085938 191.15625 241.03125 192.164062 C 241.085938 191.15625 241.117188 190.148438 241.117188 189.140625 " fill-opacity="1" fill-rule="nonzero"/><path fill="#234974" d="M 241.023438 192.28125 C 240.957031 193.246094 240.882812 194.222656 240.765625 195.175781 C 240.882812 194.222656 240.957031 193.257812 241.023438 192.28125 " fill-opacity="1" fill-rule="nonzero"/><path fill="#234974" d="M 241.042969 186.34375 C 241.097656 187.265625 241.117188 188.195312 241.117188 189.140625 C 241.117188 188.195312 241.097656 187.265625 241.042969 186.34375 " fill-opacity="1" fill-rule="nonzero"/><path fill="#234974" d="M 234.160156 206.167969 L 233.183594 205.511719 L 232.21875 206.167969 L 232.519531 205.019531 L 231.617188 204.3125 L 232.765625 204.226562 L 233.183594 203.175781 L 233.601562 204.226562 L 234.761719 204.3125 L 233.859375 205.019531 Z M 228.980469 209.960938 L 228.015625 209.308594 L 227.039062 209.960938 L 227.339844 208.8125 L 226.441406 208.105469 L 227.597656 208.03125 L 228.015625 206.96875 L 228.433594 208.03125 L 229.582031 208.105469 L 228.679688 208.8125 Z M 225.988281 214.859375 L 225.023438 214.207031 L 224.050781 214.859375 L 224.351562 213.714844 L 223.449219 213.007812 L 224.605469 212.921875 L 225.023438 211.859375 L 225.445312 212.921875 L 226.601562 213.007812 L 225.699219 213.714844 Z M 220.886719 217.058594 L 220.253906 216.640625 L 219.632812 217.058594 L 219.816406 216.320312 L 219.234375 215.859375 L 219.984375 215.804688 L 220.253906 215.117188 L 220.523438 215.804688 L 221.273438 215.859375 L 220.695312 216.320312 Z M 215.664062 222.152344 L 214.539062 221.390625 L 213.402344 222.152344 L 213.746094 220.8125 L 212.695312 219.996094 L 214.046875 219.890625 L 214.539062 218.65625 L 215.023438 219.890625 L 216.371094 219.996094 L 215.324219 220.8125 Z M 215.160156 226.515625 L 214.539062 226.085938 L 213.90625 226.515625 L 214.101562 225.777344 L 213.519531 225.316406 L 214.273438 225.261719 L 214.539062 224.574219 L 214.808594 225.261719 L 215.546875 225.316406 L 214.96875 225.777344 Z M 209.972656 218.65625 L 208.835938 217.894531 L 207.699219 218.65625 L 208.054688 217.328125 L 207.003906 216.5 L 208.351562 216.394531 L 208.835938 215.171875 L 209.328125 216.394531 L 210.667969 216.5 L 209.628906 217.328125 Z M 204.945312 222.6875 L 203.816406 221.925781 L 202.683594 222.6875 L 203.023438 221.347656 L 201.972656 220.53125 L 203.324219 220.425781 L 203.816406 219.191406 L 204.300781 220.425781 L 205.652344 220.53125 L 204.601562 221.347656 Z M 200.195312 216.621094 L 199.230469 215.964844 L 198.253906 216.621094 L 198.554688 215.472656 L 197.652344 214.765625 L 198.8125 214.679688 L 199.230469 213.617188 L 199.648438 214.679688 L 200.804688 214.765625 L 199.90625 215.472656 Z M 194.984375 199.699219 L 194.007812 199.046875 L 193.03125 199.699219 L 193.332031 198.566406 L 192.433594 197.855469 L 193.589844 197.769531 L 194.007812 196.710938 L 194.425781 197.769531 L 195.585938 197.855469 L 194.683594 198.566406 Z M 189.128906 211.152344 L 187.691406 210.199219 L 186.265625 211.152344 L 186.707031 209.480469 L 185.386719 208.4375 L 187.082031 208.308594 L 187.691406 206.753906 L 188.316406 208.308594 L 190.007812 208.4375 L 188.691406 209.480469 Z M 188.324219 228.445312 L 187.691406 228.027344 L 187.070312 228.445312 L 187.265625 227.707031 L 186.683594 227.246094 L 187.425781 227.191406 L 187.691406 226.515625 L 187.972656 227.191406 L 188.722656 227.246094 L 188.132812 227.707031 Z M 184.371094 201.535156 L 185.109375 201.480469 L 185.386719 200.792969 L 185.65625 201.480469 L 186.40625 201.535156 L 185.816406 201.996094 L 186.007812 202.734375 L 185.386719 202.304688 L 184.753906 202.734375 L 184.949219 201.996094 Z M 183.566406 199.949219 L 182.429688 199.195312 L 181.304688 199.949219 L 181.644531 198.617188 L 180.59375 197.792969 L 181.945312 197.695312 L 182.429688 196.464844 L 182.921875 197.695312 L 184.273438 197.792969 L 183.210938 198.617188 Z M 167.578125 187.125 L 167.933594 188.464844 L 166.796875 187.703125 L 165.660156 188.464844 L 166.003906 187.125 L 164.964844 186.300781 L 166.3125 186.203125 L 166.796875 184.96875 L 167.289062 186.203125 L 168.628906 186.300781 Z M 167.742188 215.558594 L 166.3125 214.605469 L 164.886719 215.558594 L 165.328125 213.886719 L 164 212.835938 L 165.703125 212.71875 L 166.3125 211.152344 L 166.925781 212.71875 L 168.628906 212.835938 L 167.3125 213.886719 Z M 160.964844 205.167969 L 159.65625 204.300781 L 158.359375 205.167969 L 158.753906 203.648438 L 157.554688 202.703125 L 159.097656 202.585938 L 159.65625 201.167969 L 160.214844 202.585938 L 161.757812 202.703125 L 160.566406 203.648438 Z M 159.398438 210.261719 L 158.101562 209.394531 L 156.804688 210.261719 L 157.199219 208.738281 L 156 207.796875 L 157.542969 207.679688 L 158.101562 206.261719 L 158.660156 207.679688 L 160.203125 207.796875 L 159.003906 208.738281 Z M 154.734375 196.464844 L 153.898438 195.894531 L 153.0625 196.464844 L 153.308594 195.476562 L 152.539062 194.867188 L 153.535156 194.789062 L 153.898438 193.878906 L 154.261719 194.789062 L 155.261719 194.867188 L 154.476562 195.476562 Z M 150.082031 199.519531 L 148.644531 198.566406 L 147.21875 199.519531 L 147.660156 197.847656 L 146.328125 196.796875 L 148.035156 196.675781 L 148.644531 195.121094 L 149.265625 196.675781 L 150.960938 196.796875 L 149.640625 197.847656 Z M 144.011719 176.285156 L 142.585938 177.238281 L 143.027344 175.554688 L 141.707031 174.527344 L 143.402344 174.398438 L 144.011719 172.84375 L 144.636719 174.398438 L 146.328125 174.527344 L 145.011719 175.554688 L 145.449219 177.238281 Z M 142.542969 204.023438 L 141.707031 203.464844 L 140.863281 204.023438 L 141.117188 203.035156 L 140.347656 202.425781 L 141.34375 202.347656 L 141.707031 201.4375 L 142.0625 202.347656 L 143.058594 202.425781 L 142.289062 203.035156 Z M 187.285156 193.183594 L 187.691406 192.121094 L 188.109375 193.183594 L 189.269531 193.269531 L 188.378906 193.976562 L 188.667969 195.121094 L 187.691406 194.46875 L 186.726562 195.121094 L 187.027344 193.976562 L 186.128906 193.269531 Z M 208.375 180.542969 L 208.835938 179.351562 L 209.308594 180.542969 L 210.617188 180.636719 L 209.597656 181.441406 L 209.941406 182.730469 L 208.835938 181.988281 L 207.742188 182.730469 L 208.074219 181.441406 L 207.066406 180.636719 Z M 214.273438 214.570312 L 214.539062 213.886719 L 214.808594 214.570312 L 215.546875 214.625 L 214.96875 215.085938 L 215.160156 215.828125 L 214.539062 215.398438 L 213.90625 215.828125 L 214.101562 215.085938 L 213.519531 214.625 Z M 225.144531 203.3125 L 225.765625 201.769531 L 226.375 203.3125 L 228.070312 203.441406 L 226.75 204.484375 L 227.191406 206.167969 L 225.765625 205.210938 L 224.328125 206.167969 L 224.769531 204.484375 L 223.449219 203.441406 Z M 136.882812 171.761719 C 137.152344 171 137.417969 170.25 137.71875 169.507812 C 135.320312 175.589844 133.988281 182.203125 133.988281 189.140625 C 133.988281 218.722656 157.972656 242.703125 187.554688 242.703125 C 215.097656 242.703125 237.761719 221.914062 240.765625 195.1875 C 217.949219 169.457031 155.464844 170.765625 136.882812 171.761719 " fill-opacity="1" fill-rule="nonzero"/><path fill="#234974" d="M 215.761719 165.511719 L 216.371094 163.957031 L 216.984375 165.511719 L 218.6875 165.640625 L 217.359375 166.679688 L 217.800781 168.363281 L 216.371094 167.398438 L 214.9375 168.363281 L 215.375 166.679688 L 214.058594 165.640625 Z M 240.828125 183.574219 C 240.925781 184.457031 240.988281 185.34375 241.03125 186.246094 C 239.53125 158.003906 216.167969 135.574219 187.554688 135.574219 C 166.648438 135.574219 148.558594 147.550781 139.726562 165.015625 C 140.078125 164.320312 140.441406 163.632812 140.828125 162.957031 C 162.582031 162.058594 214.003906 162.421875 240.828125 183.574219 " fill-opacity="1" fill-rule="nonzero"/><path fill="#234974" d="M 137.730469 169.457031 C 138.019531 168.726562 138.332031 168.007812 138.640625 167.289062 C 138.332031 168.007812 138.019531 168.726562 137.730469 169.457031 " fill-opacity="1" fill-rule="nonzero"/><path fill="#234974" d="M 138.683594 167.203125 C 139.007812 166.496094 139.339844 165.800781 139.683594 165.113281 C 139.339844 165.800781 139.007812 166.496094 138.683594 167.203125 " fill-opacity="1" fill-rule="nonzero"/><path fill="#ffffff" d="M 240.765625 195.175781 C 240.882812 194.222656 240.957031 193.246094 241.023438 192.28125 L 241.03125 192.164062 C 241.085938 191.15625 241.117188 190.148438 241.117188 189.140625 C 241.117188 188.195312 241.097656 187.265625 241.042969 186.34375 L 241.03125 186.246094 C 240.988281 185.34375 240.925781 184.457031 240.828125 183.574219 C 214.003906 162.421875 162.582031 162.058594 140.828125 162.957031 C 140.441406 163.632812 140.078125 164.320312 139.726562 165.015625 L 139.683594 165.113281 C 139.339844 165.800781 139.007812 166.496094 138.683594 167.203125 L 138.640625 167.289062 C 138.332031 168.007812 138.019531 168.726562 137.730469 169.457031 L 137.71875 169.507812 C 137.417969 170.25 137.152344 171 136.882812 171.761719 C 155.464844 170.765625 217.949219 169.457031 240.765625 195.1875 L 240.765625 195.175781 " fill-opacity="1" fill-rule="nonzero"/><path fill="#ffffff" d="M 214.9375 168.363281 L 216.371094 167.398438 L 217.800781 168.363281 L 217.359375 166.679688 L 218.6875 165.640625 L 216.984375 165.511719 L 216.371094 163.957031 L 215.761719 165.511719 L 214.058594 165.640625 L 215.375 166.679688 L 214.9375 168.363281 " fill-opacity="1" fill-rule="nonzero"/><path fill="#ffffff" d="M 224.328125 206.167969 L 225.765625 205.210938 L 227.191406 206.167969 L 226.75 204.484375 L 228.070312 203.441406 L 226.375 203.3125 L 225.765625 201.769531 L 225.144531 203.3125 L 223.449219 203.441406 L 224.769531 204.484375 L 224.328125 206.167969 " fill-opacity="1" fill-rule="nonzero"/><path fill="#ffffff" d="M 233.601562 204.226562 L 233.183594 203.175781 L 232.765625 204.226562 L 231.617188 204.3125 L 232.519531 205.019531 L 232.21875 206.167969 L 233.183594 205.511719 L 234.160156 206.167969 L 233.859375 205.019531 L 234.761719 204.3125 L 233.601562 204.226562 " fill-opacity="1" fill-rule="nonzero"/><path fill="#ffffff" d="M 228.433594 208.03125 L 228.015625 206.96875 L 227.597656 208.03125 L 226.441406 208.105469 L 227.339844 208.8125 L 227.039062 209.960938 L 228.015625 209.308594 L 228.980469 209.960938 L 228.679688 208.8125 L 229.582031 208.105469 L 228.433594 208.03125 " fill-opacity="1" fill-rule="nonzero"/><path fill="#ffffff" d="M 225.441406 212.921875 L 225.023438 211.859375 L 224.605469 212.921875 L 223.449219 213.007812 L 224.351562 213.714844 L 224.050781 214.859375 L 225.023438 214.207031 L 225.988281 214.859375 L 225.699219 213.714844 L 226.601562 213.007812 L 225.441406 212.921875 " fill-opacity="1" fill-rule="nonzero"/><path fill="#ffffff" d="M 199.648438 214.679688 L 199.230469 213.617188 L 198.8125 214.679688 L 197.652344 214.765625 L 198.554688 215.472656 L 198.253906 216.621094 L 199.230469 215.964844 L 200.195312 216.621094 L 199.90625 215.472656 L 200.804688 214.765625 L 199.648438 214.679688 " fill-opacity="1" fill-rule="nonzero"/><path fill="#ffffff" d="M 186.726562 195.121094 L 187.691406 194.46875 L 188.667969 195.121094 L 188.378906 193.976562 L 189.269531 193.269531 L 188.109375 193.183594 L 187.691406 192.121094 L 187.285156 193.183594 L 186.128906 193.269531 L 187.027344 193.976562 L 186.726562 195.121094 " fill-opacity="1" fill-rule="nonzero"/><path fill="#ffffff" d="M 194.425781 197.769531 L 194.007812 196.710938 L 193.589844 197.769531 L 192.433594 197.855469 L 193.332031 198.566406 L 193.03125 199.699219 L 194.007812 199.046875 L 194.984375 199.699219 L 194.683594 198.566406 L 195.585938 197.855469 L 194.425781 197.769531 " fill-opacity="1" fill-rule="nonzero"/><path fill="#ffffff" d="M 220.523438 215.804688 L 220.253906 215.117188 L 219.984375 215.804688 L 219.234375 215.859375 L 219.816406 216.320312 L 219.632812 217.058594 L 220.253906 216.640625 L 220.886719 217.058594 L 220.695312 216.320312 L 221.273438 215.859375 L 220.523438 215.804688 " fill-opacity="1" fill-rule="nonzero"/><path fill="#ffffff" d="M 213.90625 215.824219 L 214.539062 215.398438 L 215.160156 215.824219 L 214.96875 215.085938 L 215.546875 214.625 L 214.808594 214.570312 L 214.539062 213.886719 L 214.273438 214.570312 L 213.519531 214.625 L 214.101562 215.085938 L 213.90625 215.824219 " fill-opacity="1" fill-rule="nonzero"/><path fill="#ffffff" d="M 187.972656 227.191406 L 187.691406 226.515625 L 187.425781 227.191406 L 186.683594 227.246094 L 187.265625 227.707031 L 187.070312 228.445312 L 187.691406 228.027344 L 188.324219 228.445312 L 188.132812 227.707031 L 188.722656 227.246094 L 187.972656 227.191406 " fill-opacity="1" fill-rule="nonzero"/><path fill="#ffffff" d="M 185.386719 202.304688 L 186.007812 202.734375 L 185.816406 201.996094 L 186.40625 201.535156 L 185.65625 201.480469 L 185.386719 200.792969 L 185.109375 201.480469 L 184.371094 201.535156 L 184.949219 201.996094 L 184.753906 202.734375 L 185.386719 202.304688 " fill-opacity="1" fill-rule="nonzero"/><path fill="#ffffff" d="M 214.808594 225.261719 L 214.539062 224.574219 L 214.273438 225.261719 L 213.519531 225.316406 L 214.101562 225.777344 L 213.90625 226.515625 L 214.539062 226.085938 L 215.160156 226.515625 L 214.96875 225.777344 L 215.546875 225.316406 L 214.808594 225.261719 " fill-opacity="1" fill-rule="nonzero"/><path fill="#ffffff" d="M 209.328125 216.394531 L 208.835938 215.171875 L 208.351562 216.394531 L 207.003906 216.5 L 208.054688 217.328125 L 207.699219 218.65625 L 208.835938 217.894531 L 209.972656 218.65625 L 209.628906 217.328125 L 210.667969 216.5 L 209.328125 216.394531 " fill-opacity="1" fill-rule="nonzero"/><path fill="#ffffff" d="M 215.023438 219.890625 L 214.539062 218.65625 L 214.046875 219.890625 L 212.695312 219.996094 L 213.746094 220.8125 L 213.402344 222.152344 L 214.539062 221.390625 L 215.664062 222.152344 L 215.320312 220.8125 L 216.371094 219.996094 L 215.023438 219.890625 " fill-opacity="1" fill-rule="nonzero"/><path fill="#ffffff" d="M 204.300781 220.425781 L 203.816406 219.191406 L 203.324219 220.425781 L 201.972656 220.53125 L 203.023438 221.347656 L 202.679688 222.6875 L 203.816406 221.925781 L 204.945312 222.6875 L 204.601562 221.347656 L 205.652344 220.53125 L 204.300781 220.425781 " fill-opacity="1" fill-rule="nonzero"/><path fill="#ffffff" d="M 182.921875 197.695312 L 182.429688 196.464844 L 181.945312 197.695312 L 180.59375 197.792969 L 181.644531 198.617188 L 181.304688 199.949219 L 182.429688 199.195312 L 183.566406 199.949219 L 183.210938 198.617188 L 184.273438 197.792969 L 182.921875 197.695312 " fill-opacity="1" fill-rule="nonzero"/><path fill="#ffffff" d="M 166.796875 184.96875 L 166.3125 186.203125 L 164.964844 186.300781 L 166.003906 187.125 L 165.660156 188.464844 L 166.796875 187.703125 L 167.933594 188.464844 L 167.578125 187.125 L 168.628906 186.300781 L 167.289062 186.203125 L 166.796875 184.96875 " fill-opacity="1" fill-rule="nonzero"/><path fill="#ffffff" d="M 188.316406 208.308594 L 187.691406 206.753906 L 187.082031 208.308594 L 185.386719 208.4375 L 186.707031 209.480469 L 186.265625 211.152344 L 187.691406 210.199219 L 189.128906 211.152344 L 188.691406 209.480469 L 190.007812 208.4375 L 188.316406 208.308594 " fill-opacity="1" fill-rule="nonzero"/><path fill="#ffffff" d="M 149.265625 196.675781 L 148.644531 195.121094 L 148.035156 196.675781 L 146.328125 196.796875 L 147.660156 197.847656 L 147.21875 199.519531 L 148.644531 198.566406 L 150.082031 199.519531 L 149.640625 197.847656 L 150.960938 196.796875 L 149.265625 196.675781 " fill-opacity="1" fill-rule="nonzero"/><path fill="#ffffff" d="M 146.328125 174.527344 L 144.636719 174.398438 L 144.011719 172.84375 L 143.402344 174.398438 L 141.707031 174.527344 L 143.027344 175.554688 L 142.585938 177.238281 L 144.011719 176.285156 L 145.449219 177.238281 L 145.011719 175.554688 L 146.328125 174.527344 " fill-opacity="1" fill-rule="nonzero"/><path fill="#ffffff" d="M 158.660156 207.679688 L 158.101562 206.261719 L 157.542969 207.679688 L 156 207.796875 L 157.199219 208.738281 L 156.804688 210.261719 L 158.101562 209.394531 L 159.398438 210.261719 L 159.003906 208.738281 L 160.203125 207.796875 L 158.660156 207.679688 " fill-opacity="1" fill-rule="nonzero"/><path fill="#ffffff" d="M 160.214844 202.585938 L 159.65625 201.167969 L 159.097656 202.585938 L 157.554688 202.703125 L 158.753906 203.648438 L 158.359375 205.167969 L 159.65625 204.300781 L 160.964844 205.167969 L 160.566406 203.648438 L 161.757812 202.703125 L 160.214844 202.585938 " fill-opacity="1" fill-rule="nonzero"/><path fill="#ffffff" d="M 154.261719 194.789062 L 153.898438 193.878906 L 153.535156 194.789062 L 152.539062 194.867188 L 153.308594 195.476562 L 153.0625 196.464844 L 153.898438 195.894531 L 154.734375 196.464844 L 154.476562 195.476562 L 155.261719 194.867188 L 154.261719 194.789062 " fill-opacity="1" fill-rule="nonzero"/><path fill="#ffffff" d="M 142.0625 202.347656 L 141.707031 201.4375 L 141.34375 202.347656 L 140.347656 202.425781 L 141.117188 203.035156 L 140.863281 204.023438 L 141.707031 203.464844 L 142.542969 204.023438 L 142.289062 203.035156 L 143.058594 202.425781 L 142.0625 202.347656 " fill-opacity="1" fill-rule="nonzero"/><path fill="#ffffff" d="M 166.925781 212.71875 L 166.3125 211.152344 L 165.703125 212.71875 L 164 212.835938 L 165.328125 213.886719 L 164.886719 215.558594 L 166.3125 214.605469 L 167.742188 215.558594 L 167.3125 213.886719 L 168.628906 212.835938 L 166.925781 212.71875 " fill-opacity="1" fill-rule="nonzero"/><path fill="#ffffff" d="M 207.742188 182.730469 L 208.835938 181.988281 L 209.941406 182.730469 L 209.597656 181.441406 L 210.617188 180.636719 L 209.308594 180.542969 L 208.835938 179.351562 L 208.375 180.542969 L 207.066406 180.636719 L 208.074219 181.441406 L 207.742188 182.730469 " fill-opacity="1" fill-rule="nonzero"/><path fill="#1e7731" d="M 187.554688 336.410156 C 135.027344 336.410156 88.863281 309.210938 62.371094 268.125 C 88.488281 290.789062 122.582031 304.515625 159.882812 304.515625 C 223.75 304.515625 278.226562 264.289062 299.355469 207.796875 L 334.535156 187.554688 L 307.839844 172.191406 C 308.4375 166.765625 308.75 161.242188 308.75 155.65625 C 308.75 125.96875 300.054688 98.308594 285.078125 75.085938 C 316.523438 102.382812 336.410156 142.640625 336.410156 187.554688 C 336.410156 269.765625 269.765625 336.410156 187.554688 336.410156 " fill-opacity="1" fill-rule="nonzero"/><path fill="#8f9a1b" d="M 299.355469 207.796875 C 303.582031 196.507812 306.464844 184.582031 307.839844 172.191406 L 334.535156 187.554688 L 299.355469 207.796875 " fill-opacity="1" fill-rule="nonzero"/><path fill="#68b265" d="M 44.984375 208.394531 C 44.855469 208.394531 44.730469 208.332031 44.605469 208.214844 C 43.371094 206.980469 42.445312 199.699219 42.910156 188.90625 L 50.457031 193.246094 C 47.761719 202.574219 46.242188 208.394531 44.984375 208.394531 M 43.058594 186.128906 C 44.679688 160.03125 54.101562 116.503906 84.488281 86.128906 C 118.347656 52.253906 168.554688 44.425781 192.730469 44.425781 C 200.484375 44.425781 205.566406 45.230469 206.574219 46.242188 C 210.722656 50.394531 144.25 56.4375 99.53125 101.171875 C 74.890625 125.808594 61.988281 157.039062 54.675781 179.4375 L 43.058594 186.128906 " fill-opacity="1" fill-rule="nonzero"/><path fill="#ddd859" d="M 50.457031 193.246094 L 42.910156 188.90625 C 42.949219 188.003906 43 187.070312 43.058594 186.128906 L 54.675781 179.4375 C 53.003906 184.5625 51.621094 189.226562 50.457031 193.246094 " fill-opacity="1" fill-rule="nonzero"/></svg>